<?xml version="1.0" encoding="UTF-8"?>
<svg width="135" height="40" viewBox="0 0 135 40" fill="none" xmlns="http://www.w3.org/2000/svg">
  <rect width="135" height="40" rx="5" fill="#000000"/>
  <path d="M24.77 20.3c-.03-3.21 2.62-4.76 2.74-4.83-1.49-2.18-3.82-2.48-4.65-2.51-1.98-.2-3.86 1.16-4.86 1.16-1 0-2.54-1.13-4.18-1.1-2.15.03-4.13 1.25-5.23 3.17-2.23 3.87-.57 9.6 1.6 12.74 1.06 1.53 2.32 3.26 3.98 3.2 1.6-.06 2.2-1.03 4.13-1.03 1.93 0 2.48 1.03 4.17 1 1.72-.03 2.81-1.56 3.86-3.1 1.22-1.78 1.72-3.5 1.75-3.59-.04-.02-3.35-1.28-3.38-5.09zM22.23 11.5c.88-1.07 1.47-2.55 1.31-4.03-1.26.05-2.78.84-3.69 1.9-.81.94-1.52 2.44-1.33 3.88 1.41.11 2.85-.72 3.71-1.75z" fill="#ffffff"/>
  <path d="M42.3 27.14h-4.73l-1.14 3.36h-2.01l4.48-12.42h2.08l4.48 12.42h-2.01l-1.15-3.36zm-4.24-1.55h3.75l-1.85-5.45h-.05l-1.85 5.45zm17.1.38c0 2.81-1.51 4.62-3.78 4.62-1.29.03-2.41-.58-2.96-1.61h-.04v4.55h-1.86V21.84h1.81v1.52h.03c.58-1 1.72-1.64 3.01-1.64 2.29 0 3.79 1.82 3.79 4.63zm-1.91 0c0-1.83-.95-3.04-2.39-3.04-1.42 0-2.37 1.23-2.37 3.04 0 1.82.95 3.05 2.37 3.05 1.44 0 2.39-1.2 2.39-3.05zm11.87 0c0 2.81-1.51 4.62-3.78 4.62-1.29.03-2.41-.58-2.96-1.61h-.04v4.55h-1.86V21.84h1.81v1.52h.03c.58-1 1.72-1.64 3.01-1.64 2.29 0 3.79 1.82 3.79 4.63zm-1.91 0c0-1.83-.95-3.04-2.39-3.04-1.42 0-2.37 1.23-2.37 3.04 0 1.82.95 3.05 2.37 3.05 1.44 0 2.39-1.2 2.39-3.05zm8.49 1.07c.14 1.23 1.33 2.04 2.96 2.04 1.56 0 2.69-.81 2.69-1.92 0-.97-.68-1.54-2.29-1.94l-1.61-.39c-2.28-.55-3.34-1.62-3.34-3.35 0-2.14 1.87-3.61 4.52-3.61 2.63 0 4.43 1.47 4.49 3.61h-1.88c-.11-1.24-1.14-1.99-2.63-1.99-1.49 0-2.52.76-2.52 1.86 0 .88.65 1.39 2.25 1.79l1.37.34c2.55.6 3.61 1.63 3.61 3.44 0 2.32-1.85 3.78-4.79 3.78-2.75 0-4.61-1.42-4.73-3.67h1.9zM83.44 19v2.86h2.3v1.47h-2.3v6.66c0 1.04.46 1.52 1.48 1.52.27-.01.54-.03.81-.07v1.46c-.45.09-.91.13-1.37.12-2.44 0-3.39-.91-3.39-3.23v-6.46h-1.76v-1.47h1.76V19h1.47zm2.79 7.97c0-2.85 1.68-4.64 4.29-4.64 2.62 0 4.29 1.79 4.29 4.64 0 2.86-1.66 4.64-4.29 4.64-2.63 0-4.29-1.78-4.29-4.64zm6.67 0c0-1.95-.9-3.11-2.38-3.11-1.48 0-2.38 1.17-2.38 3.11 0 1.96.9 3.11 2.38 3.11 1.48 0 2.38-1.15 2.38-3.11zm3.31-4.47h1.77v1.54h.04c.28-.98 1.18-1.64 2.32-1.64.23 0 .46.02.68.07v1.74c-.3-.1-.62-.14-.93-.13-1.28 0-2.07.86-2.07 2.21v5.66h-1.81v-9.45zm13.2 6.53c-.25 1.64-1.85 2.77-3.9 2.77-2.63 0-4.27-1.76-4.27-4.6 0-2.84 1.64-4.68 4.19-4.68 2.5 0 4.08 1.72 4.08 4.47v.64h-6.39v.11c0 1.55.97 2.57 2.43 2.57 1.03 0 1.84-.49 2.09-1.28h1.77zm-6.28-2.7h4.53c-.04-1.39-.91-2.3-2.22-2.3-1.31 0-2.23.92-2.31 2.3zm-54.12-4.53v1.14h-.03c-.48-.71-1.37-1.14-2.26-1.14-1.85 0-3.13 1.47-3.13 3.73 0 2.3 1.32 3.75 3.13 3.75.93 0 1.78-.39 2.26-1.14h.03v1.09c0 1.42-.76 2.19-2.22 2.19-1.12 0-1.83-.51-2.04-1.29h-1.78c.21 1.65 1.71 2.76 3.84 2.76 2.35 0 3.99-1.42 3.99-3.89v-7.19h-1.79zm-2.06 6.15c-1.32 0-2.19-.93-2.19-2.42s.87-2.43 2.19-2.43c1.3 0 2.17.94 2.17 2.43s-.87 2.42-2.17 2.42z" fill="#ffffff"/></svg> 