<?xml version="1.0" encoding="UTF-8"?>
<svg width="100" height="24" viewBox="0 0 100 24" fill="none" xmlns="http://www.w3.org/2000/svg">
  <path d="M12 4c4.418 0 8 3.582 8 8s-3.582 8-8 8-8-3.582-8-8 3.582-8 8-8zm0 3c-2.761 0-5 2.239-5 5s2.239 5 5 5 5-2.239 5-5-2.239-5-5-5z" fill="#00BFA5"/>
  <path d="M28 4h4v16h-4V4zm12 0h4v16h-4V4z" fill="#00BFA5"/>
  <path d="M52 4c4.418 0 8 3.582 8 8s-3.582 8-8 8-8-3.582-8-8 3.582-8 8-8zm0 3c-2.761 0-5 2.239-5 5s2.239 5 5 5 5-2.239 5-5-2.239-5-5-5z" fill="#00BFA5"/>
  <path d="M68 4h4l8 16h-4l-6-12-6 12h-4l8-16z" fill="#00BFA5"/>
  <path d="M88 4h4v16h-4V4z" fill="#00BFA5"/>
  <path d="M96 4h4v16h-4V4z" fill="#00BFA5"/>
</svg> 