<?xml version="1.0" encoding="UTF-8"?>
<svg width="135" height="40" viewBox="0 0 135 40" fill="none" xmlns="http://www.w3.org/2000/svg">
  <rect width="135" height="40" rx="5" fill="#000000"/>
  <path d="M47.42 10.24c0 .78-.57 1.34-1.35 1.34-.77 0-1.34-.56-1.34-1.34 0-.77.57-1.34 1.34-1.34.78 0 1.35.57 1.35 1.34zm-5.8 2.66l-4.25 9.67h1.43l1.25-2.99h4.51l1.25 2.99h1.43l-4.25-9.67h-1.37zm-.21 5.54l1.89-4.51 1.89 4.51h-3.78zm15.56-2.35c0-1.77-1.37-3.19-3.14-3.19h-4.51v9.67h1.34v-3.29h3.17c1.77 0 3.14-1.42 3.14-3.19zm-1.34 0c0 1.11-.85 1.96-1.96 1.96h-3.01v-3.92h3.01c1.11 0 1.96.85 1.96 1.96zm9.09 0c0-1.77-1.37-3.19-3.14-3.19h-4.51v9.67h1.34v-3.29h3.17c1.77 0 3.14-1.42 3.14-3.19zm-1.34 0c0 1.11-.85 1.96-1.96 1.96h-3.01v-3.92h3.01c1.11 0 1.96.85 1.96 1.96zm4.09 6.48h1.34v-9.67h-1.34v9.67zm11.9-4.83c0-1.77-1.37-3.19-3.14-3.19h-4.51v9.67h1.34v-3.29h3.17c1.77 0 3.14-1.42 3.14-3.19zm-1.34 0c0 1.11-.85 1.96-1.96 1.96h-3.01v-3.92h3.01c1.11 0 1.96.85 1.96 1.96z" fill="#ffffff"/>
  <path d="M68.14 21.75A4.25 4.25 0 0 1 72.39 26h4.51v1.34h-4.51A5.59 5.59 0 0 1 66.8 21.75c0-3.08 2.51-5.59 5.59-5.59h4.51v1.34h-4.51a4.25 4.25 0 0 0-4.25 4.25zm22.17 0c0 3.08-2.51 5.59-5.59 5.59h-4.51V26h4.51a4.25 4.25 0 0 0 0-8.5h-4.51v-1.34h4.51c3.08 0 5.59 2.51 5.59 5.59z" fill="#ffffff"/>
  <path d="M21.97 11.5c-.29 0-.57.07-.82.21L7.89 18.62c-.25.14-.45.34-.59.59-.14.25-.21.53-.21.82v13.94c0 .29.07.57.21.82.14.25.34.45.59.59l13.26 6.91c.25.14.53.21.82.21.29 0 .57-.07.82-.21l13.26-6.91c.25-.14.45-.34.59-.59.14-.25.21-.53.21-.82V20.03c0-.29-.07-.57-.21-.82-.14-.25-.34-.45-.59-.59L22.79 11.71c-.25-.14-.53-.21-.82-.21z" fill="#EA4335"/>
  <path d="M21.97 11.5c-.29 0-.57.07-.82.21L7.89 18.62c-.25.14-.45.34-.59.59-.14.25-.21.53-.21.82v13.94c0 .29.07.57.21.82.14.25.34.45.59.59l13.26 6.91c.25.14.53.21.82.21V11.5z" fill="#FBBC04"/>
  <path d="M21.97 11.5v33.88c.29 0 .57-.07.82-.21l13.26-6.91c.25-.14.45-.34.59-.59.14-.25.21-.53.21-.82V20.03c0-.29-.07-.57-.21-.82-.14-.25-.34-.45-.59-.59L22.79 11.71c-.25-.14-.53-.21-.82-.21z" fill="#34A853"/>
  <path d="M7.89 18.62l14.08-7.12 14.08 7.12-14.08 7.12-14.08-7.12z" fill="#188038"/>
</svg> 