<?xml version="1.0" encoding="UTF-8"?>
<svg width="120" height="24" viewBox="0 0 120 24" fill="none" xmlns="http://www.w3.org/2000/svg">
  <path d="M14.4 0H0v24h14.4c6.627 0 12-5.373 12-12S21.027 0 14.4 0zm0 18H6V6h8.4c3.314 0 6 2.686 6 6s-2.686 6-6 6h-2.4v2.4h2.4c4.97 0 9-4.03 9-9s-4.03-9-9-9zM72.4 6H64v12h2.4V6h6c3.314 0 6 2.686 6 6s-2.686 6-6 6H64v2.4h8.4c4.97 0 9-4.03 9-9s-4.03-9-9-9zM102.4 6H94v12h2.4V6h6c3.314 0 6 2.686 6 6s-2.686 6-6 6H94v2.4h8.4c4.97 0 9-4.03 9-9s-4.03-9-9-9z" fill="#2D2D2D"/>
</svg> 