<?xml version="1.0" encoding="UTF-8"?>
<svg width="80" height="24" viewBox="0 0 80 24" fill="none" xmlns="http://www.w3.org/2000/svg">
  <path d="M8.4 3.2h3.2v17.6H8.4V3.2zM0 3.2h3.2v17.6H0V3.2zm16.8 0h3.2v17.6h-3.2V3.2z" fill="#4A90E2"/>
  <path d="M28.8 3.2c4.418 0 8 3.582 8 8s-3.582 8-8 8-8-3.582-8-8 3.582-8 8-8zm0 3.2c-2.651 0-4.8 2.149-4.8 4.8s2.149 4.8 4.8 4.8 4.8-2.149 4.8-4.8-2.149-4.8-4.8-4.8z" fill="#4A90E2"/>
  <path d="M44.8 3.2h3.2v17.6h-3.2V3.2zm8 0h3.2v17.6h-3.2V3.2zm8 0h3.2v17.6h-3.2V3.2z" fill="#4A90E2"/>
  <path d="M72 3.2l8 8.8-8 8.8h-4l8-8.8-8-8.8h4z" fill="#4A90E2"/>
</svg> 