<?xml version="1.0" encoding="UTF-8"?>
<svg width="300" height="600" viewBox="0 0 300 600" fill="none" xmlns="http://www.w3.org/2000/svg">
  <!-- Phone Frame -->
  <rect width="300" height="600" rx="32" fill="#1A1A1A"/>
  <rect x="8" y="8" width="284" height="584" rx="28" fill="#FFFFFF"/>
  
  <!-- Screen Content -->
  <rect x="16" y="16" width="268" height="568" rx="24" fill="#F5F5F5"/>
  
  <!-- App Header -->
  <rect x="16" y="16" width="268" height="64" rx="24" fill="#FFFFFF"/>
  <circle cx="48" cy="48" r="16" fill="#4A90E2"/>
  <rect x="72" y="40" width="120" height="16" rx="8" fill="#333333"/>
  
  <!-- Job Cards -->
  <rect x="24" y="96" width="252" height="80" rx="8" fill="#FFFFFF"/>
  <rect x="40" y="112" width="160" height="16" rx="8" fill="#333333"/>
  <rect x="40" y="136" width="120" height="12" rx="6" fill="#666666"/>
  <rect x="40" y="152" width="80" height="12" rx="6" fill="#999999"/>
  
  <rect x="24" y="188" width="252" height="80" rx="8" fill="#FFFFFF"/>
  <rect x="40" y="204" width="160" height="16" rx="8" fill="#333333"/>
  <rect x="40" y="228" width="120" height="12" rx="6" fill="#666666"/>
  <rect x="40" y="244" width="80" height="12" rx="6" fill="#999999"/>
  
  <rect x="24" y="280" width="252" height="80" rx="8" fill="#FFFFFF"/>
  <rect x="40" y="296" width="160" height="16" rx="8" fill="#333333"/>
  <rect x="40" y="320" width="120" height="12" rx="6" fill="#666666"/>
  <rect x="40" y="336" width="80" height="12" rx="6" fill="#999999"/>
</svg> 