<?xml version="1.0" encoding="UTF-8"?>
<svg width="96" height="96" viewBox="0 0 96 96" fill="none" xmlns="http://www.w3.org/2000/svg">
  <rect width="96" height="96" rx="8" fill="#FFFFFF"/>
  <path fill-rule="evenodd" clip-rule="evenodd" d="M24 24h16v16H24V24zm4 4h8v8h-8v-8zm32-4h16v16H60V24zm4 4h8v8h-8v-8zM24 56h16v16H24V56zm4 4h8v8h-8v-8z" fill="#000000"/>
  <path fill-rule="evenodd" clip-rule="evenodd" d="M56 56h8v8h-8v-8zm16 0h8v8h-8v-8zm-16 16h8v8h-8v-8zm16 0h8v8h-8v-8zM40 40h8v8h-8v-8zm8 8h8v8h-8v-8zm8-8h8v8h-8v-8z" fill="#000000"/>
</svg> 