<svg width="20" height="20" viewBox="0 0 20 20" fill="none" xmlns="http://www.w3.org/2000/svg">
  <path d="M17.5 5h-5V2.5c0-.69-.56-1.25-1.25-1.25h-7.5c-.69 0-1.25.56-1.25 1.25v15c0 .69.56 1.25 1.25 1.25h13.75c.69 0 1.25-.56 1.25-1.25V6.25c0-.69-.56-1.25-1.25-1.25zm-12.5-2.5h5v2.5h-5V2.5zm12.5 15h-12.5V6.25h12.5v11.25z" fill="currentColor"/>
  <path d="M5 8.75h2.5v2.5H5v-2.5zm3.75 0h2.5v2.5h-2.5v-2.5zm3.75 0h2.5v2.5h-2.5v-2.5zm-7.5 3.75h2.5v2.5H5v-2.5zm3.75 0h2.5v2.5h-2.5v-2.5zm3.75 0h2.5v2.5h-2.5v-2.5z" fill="currentColor"/>
</svg> 