<?xml version="1.0" encoding="UTF-8"?>
<svg width="400" height="400" viewBox="0 0 400 400" fill="none" xmlns="http://www.w3.org/2000/svg">
  <circle cx="200" cy="200" r="200" fill="#2563EB"/>
  <path d="M200 100C200 120 180 140 160 140C140 140 120 120 120 100C120 80 140 60 160 60C180 60 200 80 200 100Z" fill="white"/>
  <path d="M160 140C160 160 140 180 120 180C100 180 80 160 80 140C80 120 100 100 120 100C140 100 160 120 160 140Z" fill="white"/>
  <path d="M240 180C240 200 220 220 200 220C180 220 160 200 160 180C160 160 180 140 200 140C220 140 240 160 240 180Z" fill="white"/>
  <path d="M280 140C280 160 260 180 240 180C220 180 200 160 200 140C200 120 220 100 240 100C260 100 280 120 280 140Z" fill="white"/>
  <path d="M320 180C320 200 300 220 280 220C260 220 240 200 240 180C240 160 260 140 280 140C300 140 320 160 320 180Z" fill="white"/>
  <path d="M200 260C200 280 180 300 160 300C140 300 120 280 120 260C120 240 140 220 160 220C180 220 200 240 200 260Z" fill="white"/>
  <path d="M280 260C280 280 260 300 240 300C220 300 200 280 200 260C200 240 220 220 240 220C260 220 280 240 280 260Z" fill="white"/>
  <path d="M240 300C240 320 220 340 200 340C180 340 160 320 160 300C160 280 180 260 200 260C220 260 240 280 240 300Z" fill="white"/>
</svg> 