<svg xmlns="http://www.w3.org/2000/svg" viewBox="0 0 48 48">
  <path fill="#00E676" d="M24 48C37.2548 48 48 37.2548 48 24C48 10.7452 37.2548 0 24 0C10.7452 0 0 10.7452 0 24C0 37.2548 10.7452 48 24 48Z"/>
  <path fill="#fff" d="M34.8 13.2C32.4 10.8 29.4 9.6 26.4 9.6C19.8 9.6 14.4 15 14.4 21.6C14.4 23.4 14.8 25.2 15.6 26.8L14.4 33.6L21.2 32.4C22.8 33.2 24.6 33.6 26.4 33.6C33 33.6 38.4 28.2 38.4 21.6C38.4 18.6 37.2 15.6 34.8 13.2ZM26.4 31.8C24.8 31.8 23.2 31.4 21.8 30.6L21.4 30.4L17.4 31.2L18.2 27.2L18 26.8C17.2 25.4 16.8 23.8 16.8 22.2C16.8 16.8 21 12.6 26.4 12.6C28.8 12.6 31.2 13.6 33 15.4C34.8 17.2 35.8 19.6 35.8 22C35.8 27.4 31.6 31.8 26.4 31.8ZM31.6 24.6C31.2 24.4 29.4 23.6 29.2 23.4C28.8 23.2 28.6 23.2 28.4 23.6C28.2 24 27.6 24.8 27.4 25C27.2 25.2 27 25.2 26.6 25C25.2 24.2 24.2 23.6 23.2 22C22.8 21.4 23.2 21.2 23.6 20.6C23.8 20.4 24 20 24.2 19.8C24.4 19.6 24.4 19.4 24.2 19.2C24 19 23.2 17.2 23 16.4C22.8 15.6 22.6 15.6 22.4 15.6H21.8C21.6 15.6 21.2 15.6 20.8 16C20.4 16.4 19.6 17.2 19.6 19C19.6 20.8 20.8 22.6 21 22.8C21.2 23 23.2 26.2 26.2 27.6C28.4 28.6 29.2 28.6 30.2 28.4C30.8 28.2 32.2 27.4 32.4 26.6C32.6 25.8 32.6 25 32.4 24.8C32.2 24.8 32 24.8 31.6 24.6Z"/>
</svg> 